<mxfile host="app.diagrams.net" agent="Mozilla/5.0 (Windows NT 10.0; Win64; x64) AppleWebKit/537.36 (KHTML, like Gecko) Chrome/131.0.0.0 Safari/537.36 Edg/131.0.0.0" version="25.0.3">
  <diagram name="Trang-1" id="DHlV2Ix38pn3WGjh-UUN">
    <mxGraphModel dx="786" dy="421" grid="1" gridSize="10" guides="1" tooltips="1" connect="1" arrows="1" fold="1" page="1" pageScale="1" pageWidth="827" pageHeight="1169" math="0" shadow="0">
      <root>
        <mxCell id="0" />
        <mxCell id="1" parent="0" />
        <mxCell id="-VkuQZQMxf0As_Ncb2f0-6" style="edgeStyle=orthogonalEdgeStyle;rounded=0;orthogonalLoop=1;jettySize=auto;html=1;entryX=0.5;entryY=0;entryDx=0;entryDy=0;fontSize=12;" edge="1" parent="1" source="-VkuQZQMxf0As_Ncb2f0-1" target="-VkuQZQMxf0As_Ncb2f0-2">
          <mxGeometry relative="1" as="geometry" />
        </mxCell>
        <mxCell id="-VkuQZQMxf0As_Ncb2f0-1" value="Start" style="ellipse;whiteSpace=wrap;html=1;fontSize=12;" vertex="1" parent="1">
          <mxGeometry x="354" y="40" width="120" height="80" as="geometry" />
        </mxCell>
        <mxCell id="-VkuQZQMxf0As_Ncb2f0-2" value="dola,vietnamdong=23000,sotien" style="shape=parallelogram;perimeter=parallelogramPerimeter;whiteSpace=wrap;html=1;fixedSize=1;fontSize=12;" vertex="1" parent="1">
          <mxGeometry x="320" y="160" width="190" height="80" as="geometry" />
        </mxCell>
        <mxCell id="-VkuQZQMxf0As_Ncb2f0-8" style="edgeStyle=orthogonalEdgeStyle;rounded=0;orthogonalLoop=1;jettySize=auto;html=1;entryX=0.5;entryY=0;entryDx=0;entryDy=0;fontSize=12;" edge="1" parent="1" source="-VkuQZQMxf0As_Ncb2f0-3" target="-VkuQZQMxf0As_Ncb2f0-4">
          <mxGeometry relative="1" as="geometry" />
        </mxCell>
        <mxCell id="-VkuQZQMxf0As_Ncb2f0-3" value="sotien=dola*vietnamdong" style="rounded=0;whiteSpace=wrap;html=1;fontSize=12;" vertex="1" parent="1">
          <mxGeometry x="320" y="280" width="200" height="80" as="geometry" />
        </mxCell>
        <mxCell id="-VkuQZQMxf0As_Ncb2f0-9" style="edgeStyle=orthogonalEdgeStyle;rounded=0;orthogonalLoop=1;jettySize=auto;html=1;entryX=0.5;entryY=0;entryDx=0;entryDy=0;fontSize=12;" edge="1" parent="1" source="-VkuQZQMxf0As_Ncb2f0-4" target="-VkuQZQMxf0As_Ncb2f0-5">
          <mxGeometry relative="1" as="geometry" />
        </mxCell>
        <mxCell id="-VkuQZQMxf0As_Ncb2f0-4" value="sotien" style="shape=parallelogram;perimeter=parallelogramPerimeter;whiteSpace=wrap;html=1;fixedSize=1;fontSize=12;" vertex="1" parent="1">
          <mxGeometry x="320" y="400" width="200" height="80" as="geometry" />
        </mxCell>
        <mxCell id="-VkuQZQMxf0As_Ncb2f0-5" value="end" style="ellipse;whiteSpace=wrap;html=1;fontSize=12;" vertex="1" parent="1">
          <mxGeometry x="355" y="520" width="120" height="80" as="geometry" />
        </mxCell>
        <mxCell id="-VkuQZQMxf0As_Ncb2f0-7" style="edgeStyle=orthogonalEdgeStyle;rounded=0;orthogonalLoop=1;jettySize=auto;html=1;entryX=0.47;entryY=0.008;entryDx=0;entryDy=0;entryPerimeter=0;fontSize=12;" edge="1" parent="1" source="-VkuQZQMxf0As_Ncb2f0-2" target="-VkuQZQMxf0As_Ncb2f0-3">
          <mxGeometry relative="1" as="geometry" />
        </mxCell>
      </root>
    </mxGraphModel>
  </diagram>
</mxfile>
